<?xml version="1.0" encoding="utf-8"?>
<!-- Generator: Adobe Illustrator 19.1.0, SVG Export Plug-In . SVG Version: 6.00 Build 0)  -->
<svg version="1.1" id="Layer_1" xmlns="http://www.w3.org/2000/svg" xmlns:xlink="http://www.w3.org/1999/xlink" x="0px" y="0px"
	 viewBox="0 0 510 481" style="enable-background:new 0 0 510 481;" xml:space="preserve">
<style type="text/css">
	.st0{fill:#FFFFFF;}
	.st1{font-family:'TisaSansPro-BoldItalic';}
	.st2{font-size:116.6398px;}
</style>
<text transform="matrix(1 0 0 1 10.9303 441.0345)" class="st0 st1 st2">BuzzNow</text>
<path class="st0" d="M224.9,179.2c-5.6-3.2-11.3-6.5-16.9-9.7c-6.5-0.6-10.9-3.9-13.3-9.9c-16.8-15.4-31.8-32.2-41.8-53
	c-4.7-9.8-8.4-19.9-8.5-30.9c-0.1-17.3,10.8-27.4,28-25.4c20.3,2.4,37,12.7,52.4,25.4c7.6,6.3,14.5,13.4,22.7,20.9
	c0.5-14.3,1.9-27.6,5.4-40.5c3.4-12.3,7.9-24.1,16-34.2C281.5,6,298.4,6,310.8,22.2c10.8,14.1,15.1,30.9,17.1,48.2
	c3.3,28.6,1,56.5-10.6,83.3c-2.6,6-5.3,9.4-12.6,5.6c-4.9-2.6-10.6-4-16.3-4.4c-6.5,1.4-8.3,5.8-9.4,12c-2.1,12-6.4,15-18.7,15.3
	c-8.6,0.2-17.2-0.3-25.7,1C230.9,183.6,227.1,183.1,224.9,179.2z"/>
<path class="st0" d="M224.9,179.2c3.8,1.4,7.6,1.6,11.7,0.7c8.7-1.9,17.6-2.7,26.4-1.1c8,1.4,11.4-2.5,12.7-9.5
	c0.5-2.4,0.9-4.7,1-7.1c0.4-11,0.4-11,11.8-7.3c-22.4,56.4-23.8,114.4-13.6,173.3c1.8,10.4,1.8,10.7-8.9,11.1
	c-12.9,0.5-25.8,0.9-38.7-1c-3.9-0.6-5.6-1.9-6.2-5.8C213.1,281.1,212.2,230,224.9,179.2z"/>
<path class="st0" d="M370.2,203.6c-3.9-0.8-6.1-2.4-8.3-5.4c-11.3-15-26.2-25.3-42.9-33.6c-4.8-2.4-6.7-1.9-8.1,3.7
	c-5,20-7,40.3-7.8,62.1c0.2,3,0.5,7.3,0.6,11.6c1.2,26,6.3,51.3,15.8,75.6c0.9,2.3,0.6,7.2,6.2,4.3c25.3-13.5,53.8-40.8,52.4-78.4
	c-0.1-4.1,0.6-7.4,3.3-11C389.7,221.5,383.7,206.4,370.2,203.6z M344.8,240.2c-4.6-0.1-7.5-2.8-7.7-7.4c-0.2-5.1,2.8-8.2,7.7-8.3
	c5-0.1,7.7,2.9,8.3,7.9C352.5,237.3,349.8,240.3,344.8,240.2z M369.5,230.2c-5.2-0.3-8.6-3.4-8.1-9c0.4-5.1,4.1-7.1,8.1-8
	c5.7,1.1,9,3.8,8.6,9.3C377.7,227.6,374.3,230.4,369.5,230.2z"/>
<path class="st0" d="M194.6,159.5c4.4,3.3,8.9,6.6,13.3,9.9c-17,54.7-15.8,109.2,1.4,164.9c-14.9-3.4-27.9-9.1-40.1-16.7
	c-1.7-1.1-1.9-3.1-2.3-5c-9-43.9-9.1-87.6,0.5-131.4c1.6-7.3,4.9-12,11.8-14.7C184.5,164.6,189.5,161.9,194.6,159.5z"/>
<path class="st0" d="M138.9,202.2c-6.2,29.5-6.9,58.8,1.6,88.1c-7.3-6.8-11.9-15.3-13.6-24.5c-1.9-10.6-8.3-14.9-17.5-17.2
	c-4.7-1.2-9.3-2.4-15.1-3.9c4.1-0.9,7.2-1.6,10.3-2.1c11.8-2.1,20.4-7.1,22.9-20.2C129,214.8,132.9,207.9,138.9,202.2z"/>
</svg>
